<svg width="86" height="57" viewBox="0 0 86 57" fill="none" xmlns="http://www.w3.org/2000/svg">
<path d="M0.500461 23.9998C0.100461 21.1998 2.33379 18.8332 3.50046 17.9998C8.70083 15.5998 11.667 19.6665 12.5 21.9998C13.8333 28.4998 16.6 42.0998 17 44.4998C17.5 47.4998 17 50.4998 14 51.4998C9.6 53.0998 7.16667 50.1665 6.5 48.4998C4.66682 41.4998 0.900461 26.7998 0.500461 23.9998Z" fill="#366EFF"/>
<path d="M30.3369 8.75379C30.5726 5.04838 33.3055 2.35518 34.6425 1.47176C40.3065 -0.758487 42.3144 5.03015 42.6103 8.20325C42.462 16.8742 42.1289 35.0124 41.9832 38.1982C41.8011 42.1805 40.6336 45.9921 37.4526 46.7793C32.7573 48.1069 31.0194 43.8813 30.7374 41.6026C30.5057 32.1969 30.1012 12.4592 30.3369 8.75379Z" fill="#366EFF"/>
<path d="M67.5534 20.7297C69.6097 18.0795 73.1769 17.6469 74.7035 17.7618C80.4091 19.3864 79.1192 24.9119 77.761 27.4716C73.2753 33.9082 63.8735 47.3594 62.1516 49.6712C59.9992 52.5608 57.1355 54.7476 54.1655 53.4851C49.698 51.7462 50.4195 47.5541 51.3386 45.6754C55.8867 38.4644 65.4971 23.3798 67.5534 20.7297Z" fill="#366EFF"/>
</svg>
